<svg width="44" height="44" viewBox="0 0 44 44" fill="none" xmlns="http://www.w3.org/2000/svg">
<path d="M9.97279 15.657C11.2048 15.657 12.2999 15.921 13.2581 16.449C14.2359 16.977 14.9986 17.7592 15.5461 18.7956C16.1132 19.8321 16.3968 21.0836 16.3968 22.5503V32.0836H13.0821V23.049C13.0821 21.6018 12.7204 20.497 11.9968 19.7343C11.2732 18.9521 10.2857 18.561 9.03413 18.561C7.78257 18.561 6.78524 18.9521 6.04213 19.7343C5.31857 20.497 4.95679 21.6018 4.95679 23.049V32.0836H1.61279V10.377H4.95679V17.7983C5.5239 17.1138 6.23768 16.5858 7.09813 16.2143C7.97813 15.8427 8.93635 15.657 9.97279 15.657Z" fill="#43403B"/>
<path d="M29.0223 15.657C30.2543 15.657 31.3494 15.921 32.3076 16.449C33.2854 16.977 34.0481 17.7592 34.5956 18.7956C35.1627 19.8321 35.4463 21.0836 35.4463 22.5503V32.0836H32.1316V23.049C32.1316 21.6018 31.7698 20.497 31.0463 19.7343C30.3227 18.9521 29.3352 18.561 28.0836 18.561C26.8321 18.561 25.8347 18.9521 25.0916 19.7343C24.3681 20.497 24.0063 21.6018 24.0063 23.049V32.0836H20.6623V10.377H24.0063V17.7983C24.5734 17.1138 25.2872 16.5858 26.1476 16.2143C27.0276 15.8427 27.9858 15.657 29.0223 15.657Z" fill="#43403B"/>
<path d="M41.0611 32.289C40.4549 32.289 39.9464 32.0836 39.5358 31.673C39.1251 31.2623 38.9198 30.7538 38.9198 30.1476C38.9198 29.5414 39.1251 29.033 39.5358 28.6223C39.9464 28.2116 40.4549 28.0063 41.0611 28.0063C41.6478 28.0063 42.1464 28.2116 42.5571 28.6223C42.9678 29.033 43.1731 29.5414 43.1731 30.1476C43.1731 30.7538 42.9678 31.2623 42.5571 31.673C42.1464 32.0836 41.6478 32.289 41.0611 32.289Z" fill="#12B379"/>
</svg>
